<?xml version="1.0" encoding="iso-8859-1"?>
<!-- Uploaded to: SVG Repo, www.svgrepo.com, Generator: SVG Repo Mixer Tools -->
<svg height="800px" width="800px" version="1.1" id="Layer_1" xmlns="http://www.w3.org/2000/svg" xmlns:xlink="http://www.w3.org/1999/xlink" 
	 viewBox="0 0 512 512" xml:space="preserve">
<path style="fill:#F2F2F2;" d="M435.478,512H76.522c-9.22,0-16.696-7.475-16.696-16.696V16.696C59.826,7.475,67.301,0,76.522,0
	h264.056c4.428,0,8.674,1.759,11.805,4.891l94.9,94.9c3.131,3.131,4.891,7.377,4.891,11.805v383.708
	C452.174,504.525,444.699,512,435.478,512z"/>
<path style="fill:#CDD6E0;" d="M447.283,99.79L352.384,4.891C349.253,1.759,345.006,0,340.578,0H256v512h179.478
	c9.22,0,16.696-7.475,16.696-16.696V111.596C452.174,107.167,450.414,102.921,447.283,99.79z"/>
<path style="fill:#FFD15C;" d="M189.263,416.246h-42.88c-9.22,0-16.696-7.475-16.696-16.696s7.475-16.696,16.696-16.696h42.88
	c9.22,0,16.696,7.475,16.696,16.696S198.483,416.246,189.263,416.246z"/>
<g>
	<path style="fill:#4CDBC4;" d="M189.263,129.145h-42.88c-9.22,0-16.696-7.475-16.696-16.696s7.475-16.696,16.696-16.696h42.88
		c9.22,0,16.696,7.475,16.696,16.696S198.483,129.145,189.263,129.145z"/>
	<path style="fill:#4CDBC4;" d="M365.617,205.526H146.383c-9.22,0-16.696-7.475-16.696-16.696s7.475-16.696,16.696-16.696h219.235
		c9.22,0,16.696,7.475,16.696,16.696S374.839,205.526,365.617,205.526z"/>
	<path style="fill:#4CDBC4;" d="M365.617,281.906H146.383c-9.22,0-16.696-7.475-16.696-16.696c0-9.22,7.475-16.696,16.696-16.696
		h219.235c9.22,0,16.696,7.475,16.696,16.696C382.314,274.431,374.839,281.906,365.617,281.906z"/>
</g>
<path style="fill:#F8B64C;" d="M334.127,447.736c-26.569,0-48.186-21.616-48.186-48.186s21.616-48.186,48.186-48.186
	s48.186,21.616,48.186,48.186S360.696,447.736,334.127,447.736z M334.127,384.756c-8.158,0-14.795,6.637-14.795,14.795
	s6.637,14.795,14.795,14.795s14.795-6.637,14.795-14.795S342.284,384.756,334.127,384.756z"/>
<g>
	<path style="fill:#5AC2AD;" d="M365.617,172.134H256v33.391h109.617c9.22,0,16.696-7.475,16.696-16.696
		S374.839,172.134,365.617,172.134z"/>
	<path style="fill:#5AC2AD;" d="M365.617,248.515H256v33.391h109.617c9.22,0,16.696-7.475,16.696-16.696
		C382.313,255.99,374.839,248.515,365.617,248.515z"/>
</g>
</svg>